# xmcd CD database file
#
# Track frame offsets:
#	150
#	13808
#	25325
#	36818
#	46045
#	55268
#	64803
#	77735
#	91695
#	100740
#	115020
#	127863
#	135633
#	147878
#	157885
#	169868
#	180578
#	194958
#	207753
#	220880
#	233448
#	245695
#	259705
#	268170
#
# Disc length: 3696 seconds
#
# Revision: 1
# Processed by: cddbd v1.4PL0 Copyright (c) Steve Scherf et al.
# Submitted via: CDex 1.50
#
DISCID=480e6e18
DTITLE=Mitchell, Sam - The Art of Bottleneck/Slide Guitar
DYEAR=1991
DGENRE=Blues
TTITLE0=Ambidextrous March
TTITLE1=Travelling Riverside Blues
TTITLE2=(Baby, Let Me) Follow You Down
TTITLE3=Laguna Luna
TTITLE4=Paddlin' Madeline
TTITLE5=Nobody's Fault But Mine
TTITLE6=Earl Blue
TTITLE7=Sunshine in Houston
TTITLE8=Dark was the Night, Cold was the Ground
TTITLE9=Crossroads Blues
TTITLE10=Livingston Blues
TTITLE11=Let Me Play It First Before I Aloha
TTITLE12=Cat's Eyes
TTITLE13=Jubilee Jamboree
TTITLE14=Motherless Children
TTITLE15=Two Step Swing Thing
TTITLE16=Hellhound On My Trail
TTITLE17=Come On In My Kitchen
TTITLE18=Pile Driver
TTITLE19=Hambone
TTITLE20=Rainy Day Blues
TTITLE21=Part Time Love
TTITLE22=Sophisticated Slide
TTITLE23=Dirty Dozens
EXTD=YEAR: 1991
EXTT0=
EXTT1=
EXTT2=
EXTT3=
EXTT4=
EXTT5=
EXTT6=
EXTT7=
EXTT8=
EXTT9=
EXTT10=
EXTT11=
EXTT12=
EXTT13=
EXTT14=
EXTT15=
EXTT16=
EXTT17=
EXTT18=
EXTT19=
EXTT20=
EXTT21=
EXTT22=
EXTT23=
PLAYORDER=
